# Tiled2Unity generated file. Do not modify by hand.
# Wavefront file for 'map1_mesh_0002.obj'

# Vertices (Count = 808)
v -13 -1 0
v -14 -1 0
v -14 0 0
v -13 0 0
v -14 -1 0
v -15 -1 0
v -15 0 0
v -14 0 0
v -16 -1 0
v -17 -1 0
v -17 0 0
v -16 0 0
v -17 -1 0
v -18 -1 0
v -18 0 0
v -17 0 0
v -29 -1 0
v -30 -1 0
v -30 0 0
v -29 0 0
v -30 -1 0
v -31 -1 0
v -31 0 0
v -30 0 0
v -6 -2 0
v -7 -2 0
v -7 -1 0
v -6 -1 0
v -9 -2 0
v -10 -2 0
v -10 -1 0
v -9 -1 0
v -10 -2 0
v -11 -2 0
v -11 -1 0
v -10 -1 0
v -16 -2 0
v -17 -2 0
v -17 -1 0
v -16 -1 0
v -17 -2 0
v -18 -2 0
v -18 -1 0
v -17 -1 0
v -29 -2 0
v -30 -2 0
v -30 -1 0
v -29 -1 0
v -30 -2 0
v -31 -2 0
v -31 -1 0
v -30 -1 0
v -2 -3 0
v -3 -3 0
v -3 -2 0
v -2 -2 0
v -9 -3 0
v -10 -3 0
v -10 -2 0
v -9 -2 0
v -10 -3 0
v -11 -3 0
v -11 -2 0
v -10 -2 0
v -13 -3 0
v -14 -3 0
v -14 -2 0
v -13 -2 0
v -14 -3 0
v -15 -3 0
v -15 -2 0
v -14 -2 0
v -18 -3 0
v -19 -3 0
v -19 -2 0
v -18 -2 0
v -19 -3 0
v -20 -3 0
v -20 -2 0
v -19 -2 0
v -22 -3 0
v -23 -3 0
v -23 -2 0
v -22 -2 0
v -23 -3 0
v -24 -3 0
v -24 -2 0
v -23 -2 0
v -29 -3 0
v -30 -3 0
v -30 -2 0
v -29 -2 0
v -30 -3 0
v -31 -3 0
v -31 -2 0
v -30 -2 0
v -5 -4 0
v -6 -4 0
v -6 -3 0
v -5 -3 0
v -6 -4 0
v -7 -4 0
v -7 -3 0
v -6 -3 0
v -22 -4 0
v -23 -4 0
v -23 -3 0
v -22 -3 0
v -23 -4 0
v -24 -4 0
v -24 -3 0
v -23 -3 0
v -26 -4 0
v -27 -4 0
v -27 -3 0
v -26 -3 0
v -27 -4 0
v -28 -4 0
v -28 -3 0
v -27 -3 0
v -29 -4 0
v -30 -4 0
v -30 -3 0
v -29 -3 0
v -30 -4 0
v -31 -4 0
v -31 -3 0
v -30 -3 0
v -2 -5 0
v -3 -5 0
v -3 -4 0
v -2 -4 0
v -3 -5 0
v -4 -5 0
v -4 -4 0
v -3 -4 0
v -5 -5 0
v -6 -5 0
v -6 -4 0
v -5 -4 0
v -6 -5 0
v -7 -5 0
v -7 -4 0
v -6 -4 0
v -26 -5 0
v -27 -5 0
v -27 -4 0
v -26 -4 0
v -27 -5 0
v -28 -5 0
v -28 -4 0
v -27 -4 0
v -2 -6 0
v -3 -6 0
v -3 -5 0
v -2 -5 0
v -3 -6 0
v -4 -6 0
v -4 -5 0
v -3 -5 0
v -14 -6 0
v -15 -6 0
v -15 -5 0
v -14 -5 0
v -23 -6 0
v -24 -6 0
v -24 -5 0
v -23 -5 0
v -28 -6 0
v -29 -6 0
v -29 -5 0
v -28 -5 0
v -29 -6 0
v -30 -6 0
v -30 -5 0
v -29 -5 0
v -4 -7 0
v -5 -7 0
v -5 -6 0
v -4 -6 0
v -5 -7 0
v -6 -7 0
v -6 -6 0
v -5 -6 0
v -7 -7 0
v -8 -7 0
v -8 -6 0
v -7 -6 0
v -8 -7 0
v -9 -7 0
v -9 -6 0
v -8 -6 0
v -25 -7 0
v -26 -7 0
v -26 -6 0
v -25 -6 0
v -26 -7 0
v -27 -7 0
v -27 -6 0
v -26 -6 0
v -28 -7 0
v -29 -7 0
v -29 -6 0
v -28 -6 0
v -29 -7 0
v -30 -7 0
v -30 -6 0
v -29 -6 0
v -4 -8 0
v -5 -8 0
v -5 -7 0
v -4 -7 0
v -5 -8 0
v -6 -8 0
v -6 -7 0
v -5 -7 0
v -7 -8 0
v -8 -8 0
v -8 -7 0
v -7 -7 0
v -8 -8 0
v -9 -8 0
v -9 -7 0
v -8 -7 0
v -23 -8 0
v -24 -8 0
v -24 -7 0
v -23 -7 0
v -24 -8 0
v -25 -8 0
v -25 -7 0
v -24 -7 0
v -25 -8 0
v -26 -8 0
v -26 -7 0
v -25 -7 0
v -26 -8 0
v -27 -8 0
v -27 -7 0
v -26 -7 0
v -28 -8 0
v -29 -8 0
v -29 -7 0
v -28 -7 0
v -2 -9 0
v -3 -9 0
v -3 -8 0
v -2 -8 0
v -13 -9 0
v -14 -9 0
v -14 -8 0
v -13 -8 0
v -14 -9 0
v -15 -9 0
v -15 -8 0
v -14 -8 0
v -15 -9 0
v -16 -9 0
v -16 -8 0
v -15 -8 0
v -16 -9 0
v -17 -9 0
v -17 -8 0
v -16 -8 0
v -17 -9 0
v -18 -9 0
v -18 -8 0
v -17 -8 0
v -18 -9 0
v -19 -9 0
v -19 -8 0
v -18 -8 0
v -23 -9 0
v -24 -9 0
v -24 -8 0
v -23 -8 0
v -24 -9 0
v -25 -9 0
v -25 -8 0
v -24 -8 0
v -28 -9 0
v -29 -9 0
v -29 -8 0
v -28 -8 0
v -6 -10 0
v -7 -10 0
v -7 -9 0
v -6 -9 0
v -7 -10 0
v -8 -10 0
v -8 -9 0
v -7 -9 0
v -13 -10 0
v -14 -10 0
v -14 -9 0
v -13 -9 0
v -14 -10 0
v -15 -10 0
v -15 -9 0
v -14 -9 0
v -15 -10 0
v -16 -10 0
v -16 -9 0
v -15 -9 0
v -16 -10 0
v -17 -10 0
v -17 -9 0
v -16 -9 0
v -17 -10 0
v -18 -10 0
v -18 -9 0
v -17 -9 0
v -18 -10 0
v -19 -10 0
v -19 -9 0
v -18 -9 0
v -1 -11 0
v -2 -11 0
v -2 -10 0
v -1 -10 0
v -3 -11 0
v -4 -11 0
v -4 -10 0
v -3 -10 0
v -4 -11 0
v -5 -11 0
v -5 -10 0
v -4 -10 0
v -6 -11 0
v -7 -11 0
v -7 -10 0
v -6 -10 0
v -7 -11 0
v -8 -11 0
v -8 -10 0
v -7 -10 0
v -12 -11 0
v -13 -11 0
v -13 -10 0
v -12 -10 0
v -13 -11 0
v -14 -11 0
v -14 -10 0
v -13 -10 0
v -15 -11 0
v -16 -11 0
v -16 -10 0
v -15 -10 0
v -16 -11 0
v -17 -11 0
v -17 -10 0
v -16 -10 0
v -3 -12 0
v -4 -12 0
v -4 -11 0
v -3 -11 0
v -4 -12 0
v -5 -12 0
v -5 -11 0
v -4 -11 0
v -12 -12 0
v -13 -12 0
v -13 -11 0
v -12 -11 0
v -13 -12 0
v -14 -12 0
v -14 -11 0
v -13 -11 0
v -15 -12 0
v -16 -12 0
v -16 -11 0
v -15 -11 0
v -16 -12 0
v -17 -12 0
v -17 -11 0
v -16 -11 0
v -23 -12 0
v -24 -12 0
v -24 -11 0
v -23 -11 0
v -24 -12 0
v -25 -12 0
v -25 -11 0
v -24 -11 0
v -7 -13 0
v -8 -13 0
v -8 -12 0
v -7 -12 0
v -8 -13 0
v -9 -13 0
v -9 -12 0
v -8 -12 0
v -17 -13 0
v -18 -13 0
v -18 -12 0
v -17 -12 0
v -18 -13 0
v -19 -13 0
v -19 -12 0
v -18 -12 0
v -23 -13 0
v -24 -13 0
v -24 -12 0
v -23 -12 0
v -24 -13 0
v -25 -13 0
v -25 -12 0
v -24 -12 0
v -2 -14 0
v -3 -14 0
v -3 -13 0
v -2 -13 0
v -3 -14 0
v -4 -14 0
v -4 -13 0
v -3 -13 0
v -4 -14 0
v -5 -14 0
v -5 -13 0
v -4 -13 0
v -5 -14 0
v -6 -14 0
v -6 -13 0
v -5 -13 0
v -7 -14 0
v -8 -14 0
v -8 -13 0
v -7 -13 0
v -8 -14 0
v -9 -14 0
v -9 -13 0
v -8 -13 0
v -13 -14 0
v -14 -14 0
v -14 -13 0
v -13 -13 0
v -14 -14 0
v -15 -14 0
v -15 -13 0
v -14 -13 0
v -17 -14 0
v -18 -14 0
v -18 -13 0
v -17 -13 0
v -18 -14 0
v -19 -14 0
v -19 -13 0
v -18 -13 0
v -2 -15 0
v -3 -15 0
v -3 -14 0
v -2 -14 0
v -3 -15 0
v -4 -15 0
v -4 -14 0
v -3 -14 0
v -4 -15 0
v -5 -15 0
v -5 -14 0
v -4 -14 0
v -5 -15 0
v -6 -15 0
v -6 -14 0
v -5 -14 0
v -13 -15 0
v -14 -15 0
v -14 -14 0
v -13 -14 0
v -14 -15 0
v -15 -15 0
v -15 -14 0
v -14 -14 0
v -18 -15 0
v -19 -15 0
v -19 -14 0
v -18 -14 0
v -23 -15 0
v -24 -15 0
v -24 -14 0
v -23 -14 0
v -24 -15 0
v -25 -15 0
v -25 -14 0
v -24 -14 0
v -6 -16 0
v -7 -16 0
v -7 -15 0
v -6 -15 0
v -7 -16 0
v -8 -16 0
v -8 -15 0
v -7 -15 0
v -16 -16 0
v -17 -16 0
v -17 -15 0
v -16 -15 0
v -17 -16 0
v -18 -16 0
v -18 -15 0
v -17 -15 0
v -3 -17 0
v -4 -17 0
v -4 -16 0
v -3 -16 0
v -6 -17 0
v -7 -17 0
v -7 -16 0
v -6 -16 0
v -7 -17 0
v -8 -17 0
v -8 -16 0
v -7 -16 0
v -13 -17 0
v -14 -17 0
v -14 -16 0
v -13 -16 0
v -14 -17 0
v -15 -17 0
v -15 -16 0
v -14 -16 0
v -16 -17 0
v -17 -17 0
v -17 -16 0
v -16 -16 0
v -17 -17 0
v -18 -17 0
v -18 -16 0
v -17 -16 0
v -22 -17 0
v -23 -17 0
v -23 -16 0
v -22 -16 0
v -23 -17 0
v -24 -17 0
v -24 -16 0
v -23 -16 0
v -1 -18 0
v -2 -18 0
v -2 -17 0
v -1 -17 0
v -2 -18 0
v -3 -18 0
v -3 -17 0
v -2 -17 0
v -6 -18 0
v -7 -18 0
v -7 -17 0
v -6 -17 0
v -7 -18 0
v -8 -18 0
v -8 -17 0
v -7 -17 0
v -13 -18 0
v -14 -18 0
v -14 -17 0
v -13 -17 0
v -14 -18 0
v -15 -18 0
v -15 -17 0
v -14 -17 0
v -22 -18 0
v -23 -18 0
v -23 -17 0
v -22 -17 0
v -23 -18 0
v -24 -18 0
v -24 -17 0
v -23 -17 0
v -1 -19 0
v -2 -19 0
v -2 -18 0
v -1 -18 0
v -2 -19 0
v -3 -19 0
v -3 -18 0
v -2 -18 0
v -3 -19 0
v -4 -19 0
v -4 -18 0
v -3 -18 0
v -4 -19 0
v -5 -19 0
v -5 -18 0
v -4 -18 0
v -6 -19 0
v -7 -19 0
v -7 -18 0
v -6 -18 0
v -7 -19 0
v -8 -19 0
v -8 -18 0
v -7 -18 0
v -14 -19 0
v -15 -19 0
v -15 -18 0
v -14 -18 0
v -15 -19 0
v -16 -19 0
v -16 -18 0
v -15 -18 0
v -3 -20 0
v -4 -20 0
v -4 -19 0
v -3 -19 0
v -4 -20 0
v -5 -20 0
v -5 -19 0
v -4 -19 0
v -14 -20 0
v -15 -20 0
v -15 -19 0
v -14 -19 0
v -15 -20 0
v -16 -20 0
v -16 -19 0
v -15 -19 0
v -26 -20 0
v -27 -20 0
v -27 -19 0
v -26 -19 0
v -5 -21 0
v -6 -21 0
v -6 -20 0
v -5 -20 0
v -6 -21 0
v -7 -21 0
v -7 -20 0
v -6 -20 0
v -17 -21 0
v -18 -21 0
v -18 -20 0
v -17 -20 0
v -18 -21 0
v -19 -21 0
v -19 -20 0
v -18 -20 0
v -30 -21 0
v -31 -21 0
v -31 -20 0
v -30 -20 0
v -1 -22 0
v -2 -22 0
v -2 -21 0
v -1 -21 0
v -2 -22 0
v -3 -22 0
v -3 -21 0
v -2 -21 0
v -5 -22 0
v -6 -22 0
v -6 -21 0
v -5 -21 0
v -6 -22 0
v -7 -22 0
v -7 -21 0
v -6 -21 0
v -13 -22 0
v -14 -22 0
v -14 -21 0
v -13 -21 0
v -14 -22 0
v -15 -22 0
v -15 -21 0
v -14 -21 0
v -17 -22 0
v -18 -22 0
v -18 -21 0
v -17 -21 0
v -18 -22 0
v -19 -22 0
v -19 -21 0
v -18 -21 0
v -1 -23 0
v -2 -23 0
v -2 -22 0
v -1 -22 0
v -2 -23 0
v -3 -23 0
v -3 -22 0
v -2 -22 0
v -12 -23 0
v -13 -23 0
v -13 -22 0
v -12 -22 0
v -13 -23 0
v -14 -23 0
v -14 -22 0
v -13 -22 0
v -14 -23 0
v -15 -23 0
v -15 -22 0
v -14 -22 0
v -29 -23 0
v -30 -23 0
v -30 -22 0
v -29 -22 0
v -30 -23 0
v -31 -23 0
v -31 -22 0
v -30 -22 0
v -10 -24 0
v -11 -24 0
v -11 -23 0
v -10 -23 0
v -11 -24 0
v -12 -24 0
v -12 -23 0
v -11 -23 0
v -15 -24 0
v -16 -24 0
v -16 -23 0
v -15 -23 0
v -16 -24 0
v -17 -24 0
v -17 -23 0
v -16 -23 0
v -22 -24 0
v -23 -24 0
v -23 -23 0
v -22 -23 0
v -23 -24 0
v -24 -24 0
v -24 -23 0
v -23 -23 0
v -29 -24 0
v -30 -24 0
v -30 -23 0
v -29 -23 0
v -30 -24 0
v -31 -24 0
v -31 -23 0
v -30 -23 0
v -10 -25 0
v -11 -25 0
v -11 -24 0
v -10 -24 0
v -11 -25 0
v -12 -25 0
v -12 -24 0
v -11 -24 0
v -12 -25 0
v -13 -25 0
v -13 -24 0
v -12 -24 0
v -13 -25 0
v -14 -25 0
v -14 -24 0
v -13 -24 0
v -15 -25 0
v -16 -25 0
v -16 -24 0
v -15 -24 0
v -16 -25 0
v -17 -25 0
v -17 -24 0
v -16 -24 0
v -27 -25 0
v -28 -25 0
v -28 -24 0
v -27 -24 0
v -28 -25 0
v -29 -25 0
v -29 -24 0
v -28 -24 0
v -6 -26 0
v -7 -26 0
v -7 -25 0
v -6 -25 0
v -7 -26 0
v -8 -26 0
v -8 -25 0
v -7 -25 0
v -10 -26 0
v -11 -26 0
v -11 -25 0
v -10 -25 0
v -12 -26 0
v -13 -26 0
v -13 -25 0
v -12 -25 0
v -13 -26 0
v -14 -26 0
v -14 -25 0
v -13 -25 0
v -27 -26 0
v -28 -26 0
v -28 -25 0
v -27 -25 0
v -28 -26 0
v -29 -26 0
v -29 -25 0
v -28 -25 0
v -30 -26 0
v -31 -26 0
v -31 -25 0
v -30 -25 0
v -6 -27 0
v -7 -27 0
v -7 -26 0
v -6 -26 0
v -7 -27 0
v -8 -27 0
v -8 -26 0
v -7 -26 0
v -10 -27 0
v -11 -27 0
v -11 -26 0
v -10 -26 0

# Texture cooridinates (Count = 41)
vt 0.375 0.4375
vt 0.4375 0.4375
vt 0.4375 0.5
vt 0.375 0.5
vt 0.5 0.4375
vt 0.5 0.5
vt 0.375 0.6875
vt 0.4375 0.6875
vt 0.4375 0.75
vt 0.375 0.75
vt 0.5 0.6875
vt 0.5 0.75
vt 0.1875 0.5625
vt 0.25 0.5625
vt 0.25 0.625
vt 0.1875 0.625
vt 0.375 0.625
vt 0.4375 0.625
vt 0.5 0.625
vt 0 0.625
vt 0.0625 0.625
vt 0.0625 0.6875
vt 0 0.6875
vt 0.0625 0.125
vt 0.125 0.125
vt 0.125 0.1875
vt 0.0625 0.1875
vt 0.0625 0.0625
vt 0.125 0.0625
vt 0 0.5
vt 0.0625 0.5
vt 0.0625 0.5625
vt 0 0.5625
vt 0.125 0.5
vt 0.125 0.5625
vt 0 0.4375
vt 0.0625 0.4375
vt 0.125 0.4375
vt 0.3125 0.625
vt 0.3125 0.6875
vt 0.25 0.6875

# Normal
vn 0 0 -1

# Mesh description
g map1_mesh_0002

# Faces
f 1/1/1 2/2/1 3/3/1 4/4/1
f 5/2/1 6/5/1 7/6/1 8/3/1
f 9/7/1 10/8/1 11/9/1 12/10/1
f 13/8/1 14/11/1 15/12/1 16/9/1
f 17/7/1 18/8/1 19/9/1 20/10/1
f 21/8/1 22/11/1 23/12/1 24/9/1
f 25/13/1 26/14/1 27/15/1 28/16/1
f 29/7/1 30/8/1 31/9/1 32/10/1
f 33/8/1 34/11/1 35/12/1 36/9/1
f 37/17/1 38/18/1 39/8/1 40/7/1
f 41/18/1 42/19/1 43/11/1 44/8/1
f 45/17/1 46/18/1 47/8/1 48/7/1
f 49/18/1 50/19/1 51/11/1 52/8/1
f 53/13/1 54/14/1 55/15/1 56/16/1
f 57/17/1 58/18/1 59/8/1 60/7/1
f 61/18/1 62/19/1 63/11/1 64/8/1
f 65/1/1 66/2/1 67/3/1 68/4/1
f 69/2/1 70/5/1 71/6/1 72/3/1
f 73/1/1 74/2/1 75/3/1 76/4/1
f 77/2/1 78/5/1 79/6/1 80/3/1
f 81/7/1 82/8/1 83/9/1 84/10/1
f 85/8/1 86/11/1 87/12/1 88/9/1
f 89/7/1 90/8/1 91/9/1 92/10/1
f 93/8/1 94/11/1 95/12/1 96/9/1
f 97/7/1 98/8/1 99/9/1 100/10/1
f 101/8/1 102/11/1 103/12/1 104/9/1
f 105/17/1 106/18/1 107/8/1 108/7/1
f 109/18/1 110/19/1 111/11/1 112/8/1
f 113/7/1 114/8/1 115/9/1 116/10/1
f 117/8/1 118/11/1 119/12/1 120/9/1
f 121/17/1 122/18/1 123/8/1 124/7/1
f 125/18/1 126/19/1 127/11/1 128/8/1
f 129/7/1 130/8/1 131/9/1 132/10/1
f 133/8/1 134/11/1 135/12/1 136/9/1
f 137/17/1 138/18/1 139/8/1 140/7/1
f 141/18/1 142/19/1 143/11/1 144/8/1
f 145/17/1 146/18/1 147/8/1 148/7/1
f 149/18/1 150/19/1 151/11/1 152/8/1
f 153/17/1 154/18/1 155/8/1 156/7/1
f 157/18/1 158/19/1 159/11/1 160/8/1
f 161/20/1 162/21/1 163/22/1 164/23/1
f 165/13/1 166/14/1 167/15/1 168/16/1
f 169/7/1 170/8/1 171/9/1 172/10/1
f 173/8/1 174/11/1 175/12/1 176/9/1
f 177/7/1 178/8/1 179/9/1 180/10/1
f 181/8/1 182/11/1 183/12/1 184/9/1
f 185/7/1 186/8/1 187/9/1 188/10/1
f 189/8/1 190/11/1 191/12/1 192/9/1
f 193/7/1 194/8/1 195/9/1 196/10/1
f 197/8/1 198/11/1 199/12/1 200/9/1
f 201/17/1 202/18/1 203/8/1 204/7/1
f 205/18/1 206/19/1 207/11/1 208/8/1
f 209/17/1 210/18/1 211/8/1 212/7/1
f 213/18/1 214/19/1 215/11/1 216/8/1
f 217/17/1 218/18/1 219/8/1 220/7/1
f 221/18/1 222/19/1 223/11/1 224/8/1
f 225/7/1 226/8/1 227/9/1 228/10/1
f 229/8/1 230/11/1 231/12/1 232/9/1
f 233/17/1 234/18/1 235/8/1 236/7/1
f 237/18/1 238/19/1 239/11/1 240/8/1
f 241/24/1 242/25/1 243/26/1 244/27/1
f 245/13/1 246/14/1 247/15/1 248/16/1
f 249/7/1 250/8/1 251/9/1 252/10/1
f 253/8/1 254/11/1 255/12/1 256/9/1
f 257/7/1 258/8/1 259/9/1 260/10/1
f 261/8/1 262/11/1 263/12/1 264/9/1
f 265/7/1 266/8/1 267/9/1 268/10/1
f 269/8/1 270/11/1 271/12/1 272/9/1
f 273/17/1 274/18/1 275/8/1 276/7/1
f 277/18/1 278/19/1 279/11/1 280/8/1
f 281/28/1 282/29/1 283/25/1 284/24/1
f 285/7/1 286/8/1 287/9/1 288/10/1
f 289/8/1 290/11/1 291/12/1 292/9/1
f 293/17/1 294/18/1 295/8/1 296/7/1
f 297/18/1 298/19/1 299/11/1 300/8/1
f 301/17/1 302/18/1 303/8/1 304/7/1
f 305/18/1 306/19/1 307/11/1 308/8/1
f 309/17/1 310/18/1 311/8/1 312/7/1
f 313/18/1 314/19/1 315/11/1 316/8/1
f 317/13/1 318/14/1 319/15/1 320/16/1
f 321/7/1 322/8/1 323/9/1 324/10/1
f 325/8/1 326/11/1 327/12/1 328/9/1
f 329/17/1 330/18/1 331/8/1 332/7/1
f 333/18/1 334/19/1 335/11/1 336/8/1
f 337/7/1 338/8/1 339/9/1 340/10/1
f 341/8/1 342/11/1 343/12/1 344/9/1
f 345/7/1 346/8/1 347/9/1 348/10/1
f 349/8/1 350/11/1 351/12/1 352/9/1
f 353/17/1 354/18/1 355/8/1 356/7/1
f 357/18/1 358/19/1 359/11/1 360/8/1
f 361/17/1 362/18/1 363/8/1 364/7/1
f 365/18/1 366/19/1 367/11/1 368/8/1
f 369/17/1 370/18/1 371/8/1 372/7/1
f 373/18/1 374/19/1 375/11/1 376/8/1
f 377/7/1 378/8/1 379/9/1 380/10/1
f 381/8/1 382/11/1 383/12/1 384/9/1
f 385/7/1 386/8/1 387/9/1 388/10/1
f 389/8/1 390/11/1 391/12/1 392/9/1
f 393/7/1 394/8/1 395/9/1 396/10/1
f 397/8/1 398/11/1 399/12/1 400/9/1
f 401/17/1 402/18/1 403/8/1 404/7/1
f 405/18/1 406/19/1 407/11/1 408/8/1
f 409/7/1 410/8/1 411/9/1 412/10/1
f 413/8/1 414/11/1 415/12/1 416/9/1
f 417/7/1 418/8/1 419/9/1 420/10/1
f 421/8/1 422/11/1 423/12/1 424/9/1
f 425/17/1 426/18/1 427/8/1 428/7/1
f 429/18/1 430/19/1 431/11/1 432/8/1
f 433/7/1 434/8/1 435/9/1 436/10/1
f 437/8/1 438/11/1 439/12/1 440/9/1
f 441/17/1 442/18/1 443/8/1 444/7/1
f 445/18/1 446/19/1 447/11/1 448/8/1
f 449/17/1 450/18/1 451/8/1 452/7/1
f 453/18/1 454/19/1 455/11/1 456/8/1
f 457/17/1 458/18/1 459/8/1 460/7/1
f 461/18/1 462/19/1 463/11/1 464/8/1
f 465/17/1 466/18/1 467/8/1 468/7/1
f 469/18/1 470/19/1 471/11/1 472/8/1
f 473/13/1 474/14/1 475/15/1 476/16/1
f 477/1/1 478/2/1 479/3/1 480/4/1
f 481/2/1 482/5/1 483/6/1 484/3/1
f 485/7/1 486/8/1 487/9/1 488/10/1
f 489/8/1 490/11/1 491/12/1 492/9/1
f 493/7/1 494/8/1 495/9/1 496/10/1
f 497/8/1 498/11/1 499/12/1 500/9/1
f 501/13/1 502/14/1 503/15/1 504/16/1
f 505/17/1 506/18/1 507/8/1 508/7/1
f 509/18/1 510/19/1 511/11/1 512/8/1
f 513/7/1 514/8/1 515/9/1 516/10/1
f 517/8/1 518/11/1 519/12/1 520/9/1
f 521/17/1 522/18/1 523/8/1 524/7/1
f 525/18/1 526/19/1 527/11/1 528/8/1
f 529/7/1 530/8/1 531/9/1 532/10/1
f 533/8/1 534/11/1 535/12/1 536/9/1
f 537/30/1 538/31/1 539/32/1 540/33/1
f 541/31/1 542/34/1 543/35/1 544/32/1
f 545/7/1 546/8/1 547/9/1 548/10/1
f 549/8/1 550/11/1 551/12/1 552/9/1
f 553/17/1 554/18/1 555/8/1 556/7/1
f 557/18/1 558/19/1 559/11/1 560/8/1
f 561/17/1 562/18/1 563/8/1 564/7/1
f 565/18/1 566/19/1 567/11/1 568/8/1
f 569/36/1 570/37/1 571/31/1 572/30/1
f 573/37/1 574/38/1 575/34/1 576/31/1
f 577/7/1 578/8/1 579/9/1 580/10/1
f 581/8/1 582/11/1 583/12/1 584/9/1
f 585/17/1 586/18/1 587/8/1 588/7/1
f 589/18/1 590/19/1 591/11/1 592/8/1
f 593/7/1 594/8/1 595/9/1 596/10/1
f 597/8/1 598/11/1 599/12/1 600/9/1
f 601/17/1 602/18/1 603/8/1 604/7/1
f 605/18/1 606/19/1 607/11/1 608/8/1
f 609/17/1 610/18/1 611/8/1 612/7/1
f 613/18/1 614/19/1 615/11/1 616/8/1
f 617/20/1 618/21/1 619/22/1 620/23/1
f 621/7/1 622/8/1 623/9/1 624/10/1
f 625/8/1 626/11/1 627/12/1 628/9/1
f 629/7/1 630/8/1 631/9/1 632/10/1
f 633/8/1 634/11/1 635/12/1 636/9/1
f 637/15/1 638/39/1 639/40/1 640/41/1
f 641/7/1 642/8/1 643/9/1 644/10/1
f 645/8/1 646/11/1 647/12/1 648/9/1
f 649/17/1 650/18/1 651/8/1 652/7/1
f 653/18/1 654/19/1 655/11/1 656/8/1
f 657/7/1 658/8/1 659/9/1 660/10/1
f 661/8/1 662/11/1 663/12/1 664/9/1
f 665/17/1 666/18/1 667/8/1 668/7/1
f 669/18/1 670/19/1 671/11/1 672/8/1
f 673/17/1 674/18/1 675/8/1 676/7/1
f 677/18/1 678/19/1 679/11/1 680/8/1
f 681/13/1 682/14/1 683/15/1 684/16/1
f 685/17/1 686/18/1 687/8/1 688/7/1
f 689/18/1 690/19/1 691/11/1 692/8/1
f 693/7/1 694/8/1 695/9/1 696/10/1
f 697/8/1 698/11/1 699/12/1 700/9/1
f 701/7/1 702/8/1 703/9/1 704/10/1
f 705/8/1 706/11/1 707/12/1 708/9/1
f 709/7/1 710/8/1 711/9/1 712/10/1
f 713/8/1 714/11/1 715/12/1 716/9/1
f 717/1/1 718/2/1 719/3/1 720/4/1
f 721/2/1 722/5/1 723/6/1 724/3/1
f 725/17/1 726/18/1 727/8/1 728/7/1
f 729/18/1 730/19/1 731/11/1 732/8/1
f 733/17/1 734/18/1 735/8/1 736/7/1
f 737/18/1 738/19/1 739/11/1 740/8/1
f 741/7/1 742/8/1 743/9/1 744/10/1
f 745/8/1 746/11/1 747/12/1 748/9/1
f 749/17/1 750/18/1 751/8/1 752/7/1
f 753/18/1 754/19/1 755/11/1 756/8/1
f 757/7/1 758/8/1 759/9/1 760/10/1
f 761/8/1 762/11/1 763/12/1 764/9/1
f 765/7/1 766/8/1 767/9/1 768/10/1
f 769/8/1 770/11/1 771/12/1 772/9/1
f 773/13/1 774/14/1 775/15/1 776/16/1
f 777/17/1 778/18/1 779/8/1 780/7/1
f 781/18/1 782/19/1 783/11/1 784/8/1
f 785/17/1 786/18/1 787/8/1 788/7/1
f 789/18/1 790/19/1 791/11/1 792/8/1
f 793/13/1 794/14/1 795/15/1 796/16/1
f 797/17/1 798/18/1 799/8/1 800/7/1
f 801/18/1 802/19/1 803/11/1 804/8/1
f 805/13/1 806/14/1 807/15/1 808/16/1

