# Tiled2Unity generated file. Do not modify by hand.
# Wavefront file for 'Islandia_mesh_0003.obj'

# Vertices (Count = 144)
v -18 -7 0
v -19 -7 0
v -19 -6 0
v -18 -6 0
v -17 -7 0
v -18 -7 0
v -18 -6 0
v -17 -6 0
v -14 -7 0
v -15 -7 0
v -15 -6 0
v -14 -6 0
v -13 -7 0
v -14 -7 0
v -14 -6 0
v -13 -6 0
v -11 -7 0
v -12 -7 0
v -12 -6 0
v -11 -6 0
v -10 -7 0
v -11 -7 0
v -11 -6 0
v -10 -6 0
v -18 -8 0
v -19 -8 0
v -19 -7 0
v -18 -7 0
v -17 -8 0
v -18 -8 0
v -18 -7 0
v -17 -7 0
v -14 -8 0
v -15 -8 0
v -15 -7 0
v -14 -7 0
v -13 -8 0
v -14 -8 0
v -14 -7 0
v -13 -7 0
v -11 -8 0
v -12 -8 0
v -12 -7 0
v -11 -7 0
v -10 -8 0
v -11 -8 0
v -11 -7 0
v -10 -7 0
v -24 -11 0
v -25 -11 0
v -25 -10 0
v -24 -10 0
v -23 -11 0
v -24 -11 0
v -24 -10 0
v -23 -10 0
v -24 -12 0
v -25 -12 0
v -25 -11 0
v -24 -11 0
v -23 -12 0
v -24 -12 0
v -24 -11 0
v -23 -11 0
v -24 -15 0
v -25 -15 0
v -25 -14 0
v -24 -14 0
v -23 -15 0
v -24 -15 0
v -24 -14 0
v -23 -14 0
v -24 -16 0
v -25 -16 0
v -25 -15 0
v -24 -15 0
v -23 -16 0
v -24 -16 0
v -24 -15 0
v -23 -15 0
v -4 -20 0
v -5 -20 0
v -5 -19 0
v -4 -19 0
v -3 -20 0
v -4 -20 0
v -4 -19 0
v -3 -19 0
v -4 -21 0
v -5 -21 0
v -5 -20 0
v -4 -20 0
v -3 -21 0
v -4 -21 0
v -4 -20 0
v -3 -20 0
v -17 -24 0
v -18 -24 0
v -18 -23 0
v -17 -23 0
v -16 -24 0
v -17 -24 0
v -17 -23 0
v -16 -23 0
v -13 -24 0
v -14 -24 0
v -14 -23 0
v -13 -23 0
v -12 -24 0
v -13 -24 0
v -13 -23 0
v -12 -23 0
v -10 -24 0
v -11 -24 0
v -11 -23 0
v -10 -23 0
v -9 -24 0
v -10 -24 0
v -10 -23 0
v -9 -23 0
v -17 -25 0
v -18 -25 0
v -18 -24 0
v -17 -24 0
v -16 -25 0
v -17 -25 0
v -17 -24 0
v -16 -24 0
v -13 -25 0
v -14 -25 0
v -14 -24 0
v -13 -24 0
v -12 -25 0
v -13 -25 0
v -13 -24 0
v -12 -24 0
v -10 -25 0
v -11 -25 0
v -11 -24 0
v -10 -24 0
v -9 -25 0
v -10 -25 0
v -10 -24 0
v -9 -24 0

# Texture cooridinates (Count = 15)
vt 0.0625 0.9375
vt 0.125 0.9375
vt 0.125 1
vt 0.0625 1
vt 0 0.9375
vt 0 1
vt 0.0625 0.875
vt 0.125 0.875
vt 0 0.875
vt 0.1875 0.9375
vt 0.25 0.9375
vt 0.25 1
vt 0.1875 1
vt 0.1875 0.875
vt 0.25 0.875

# Normal
vn 0 0 -1

# Mesh description
g Islandia_mesh_0003

# Faces
f 1/1/1 2/2/1 3/3/1 4/4/1
f 5/5/1 6/1/1 7/4/1 8/6/1
f 9/1/1 10/2/1 11/3/1 12/4/1
f 13/5/1 14/1/1 15/4/1 16/6/1
f 17/1/1 18/2/1 19/3/1 20/4/1
f 21/5/1 22/1/1 23/4/1 24/6/1
f 25/7/1 26/8/1 27/2/1 28/1/1
f 29/9/1 30/7/1 31/1/1 32/5/1
f 33/7/1 34/8/1 35/2/1 36/1/1
f 37/9/1 38/7/1 39/1/1 40/5/1
f 41/7/1 42/8/1 43/2/1 44/1/1
f 45/9/1 46/7/1 47/1/1 48/5/1
f 49/10/1 50/11/1 51/12/1 52/13/1
f 53/2/1 54/10/1 55/13/1 56/3/1
f 57/14/1 58/15/1 59/11/1 60/10/1
f 61/8/1 62/14/1 63/10/1 64/2/1
f 65/10/1 66/11/1 67/12/1 68/13/1
f 69/2/1 70/10/1 71/13/1 72/3/1
f 73/14/1 74/15/1 75/11/1 76/10/1
f 77/8/1 78/14/1 79/10/1 80/2/1
f 81/1/1 82/2/1 83/3/1 84/4/1
f 85/5/1 86/1/1 87/4/1 88/6/1
f 89/7/1 90/8/1 91/2/1 92/1/1
f 93/9/1 94/7/1 95/1/1 96/5/1
f 97/10/1 98/11/1 99/12/1 100/13/1
f 101/2/1 102/10/1 103/13/1 104/3/1
f 105/10/1 106/11/1 107/12/1 108/13/1
f 109/2/1 110/10/1 111/13/1 112/3/1
f 113/10/1 114/11/1 115/12/1 116/13/1
f 117/2/1 118/10/1 119/13/1 120/3/1
f 121/14/1 122/15/1 123/11/1 124/10/1
f 125/8/1 126/14/1 127/10/1 128/2/1
f 129/14/1 130/15/1 131/11/1 132/10/1
f 133/8/1 134/14/1 135/10/1 136/2/1
f 137/14/1 138/15/1 139/11/1 140/10/1
f 141/8/1 142/14/1 143/10/1 144/2/1

