# Tiled2Unity generated file. Do not modify by hand.
# Wavefront file for 'Ucrania_mesh_0003.obj'

# Vertices (Count = 664)
v -103 -5 0
v -104 -5 0
v -104 -4 0
v -103 -4 0
v -102 -5 0
v -103 -5 0
v -103 -4 0
v -102 -4 0
v -99 -5 0
v -100 -5 0
v -100 -4 0
v -99 -4 0
v -98 -5 0
v -99 -5 0
v -99 -4 0
v -98 -4 0
v -103 -6 0
v -104 -6 0
v -104 -5 0
v -103 -5 0
v -102 -6 0
v -103 -6 0
v -103 -5 0
v -102 -5 0
v -99 -6 0
v -100 -6 0
v -100 -5 0
v -99 -5 0
v -98 -6 0
v -99 -6 0
v -99 -5 0
v -98 -5 0
v -105 -7 0
v -106 -7 0
v -106 -6 0
v -105 -6 0
v -104 -7 0
v -105 -7 0
v -105 -6 0
v -104 -6 0
v -103 -7 0
v -104 -7 0
v -104 -6 0
v -103 -6 0
v -102 -7 0
v -103 -7 0
v -103 -6 0
v -102 -6 0
v -101 -7 0
v -102 -7 0
v -102 -6 0
v -101 -6 0
v -100 -7 0
v -101 -7 0
v -101 -6 0
v -100 -6 0
v -99 -7 0
v -100 -7 0
v -100 -6 0
v -99 -6 0
v -98 -7 0
v -99 -7 0
v -99 -6 0
v -98 -6 0
v -97 -7 0
v -98 -7 0
v -98 -6 0
v -97 -6 0
v -96 -7 0
v -97 -7 0
v -97 -6 0
v -96 -6 0
v -105 -8 0
v -106 -8 0
v -106 -7 0
v -105 -7 0
v -104 -8 0
v -105 -8 0
v -105 -7 0
v -104 -7 0
v -103 -8 0
v -104 -8 0
v -104 -7 0
v -103 -7 0
v -102 -8 0
v -103 -8 0
v -103 -7 0
v -102 -7 0
v -101 -8 0
v -102 -8 0
v -102 -7 0
v -101 -7 0
v -100 -8 0
v -101 -8 0
v -101 -7 0
v -100 -7 0
v -99 -8 0
v -100 -8 0
v -100 -7 0
v -99 -7 0
v -98 -8 0
v -99 -8 0
v -99 -7 0
v -98 -7 0
v -97 -8 0
v -98 -8 0
v -98 -7 0
v -97 -7 0
v -96 -8 0
v -97 -8 0
v -97 -7 0
v -96 -7 0
v -105 -9 0
v -106 -9 0
v -106 -8 0
v -105 -8 0
v -104 -9 0
v -105 -9 0
v -105 -8 0
v -104 -8 0
v -103 -9 0
v -104 -9 0
v -104 -8 0
v -103 -8 0
v -102 -9 0
v -103 -9 0
v -103 -8 0
v -102 -8 0
v -101 -9 0
v -102 -9 0
v -102 -8 0
v -101 -8 0
v -100 -9 0
v -101 -9 0
v -101 -8 0
v -100 -8 0
v -99 -9 0
v -100 -9 0
v -100 -8 0
v -99 -8 0
v -98 -9 0
v -99 -9 0
v -99 -8 0
v -98 -8 0
v -97 -9 0
v -98 -9 0
v -98 -8 0
v -97 -8 0
v -96 -9 0
v -97 -9 0
v -97 -8 0
v -96 -8 0
v -105 -10 0
v -106 -10 0
v -106 -9 0
v -105 -9 0
v -104 -10 0
v -105 -10 0
v -105 -9 0
v -104 -9 0
v -103 -10 0
v -104 -10 0
v -104 -9 0
v -103 -9 0
v -102 -10 0
v -103 -10 0
v -103 -9 0
v -102 -9 0
v -101 -10 0
v -102 -10 0
v -102 -9 0
v -101 -9 0
v -100 -10 0
v -101 -10 0
v -101 -9 0
v -100 -9 0
v -99 -10 0
v -100 -10 0
v -100 -9 0
v -99 -9 0
v -98 -10 0
v -99 -10 0
v -99 -9 0
v -98 -9 0
v -97 -10 0
v -98 -10 0
v -98 -9 0
v -97 -9 0
v -96 -10 0
v -97 -10 0
v -97 -9 0
v -96 -9 0
v -105 -11 0
v -106 -11 0
v -106 -10 0
v -105 -10 0
v -104 -11 0
v -105 -11 0
v -105 -10 0
v -104 -10 0
v -103 -11 0
v -104 -11 0
v -104 -10 0
v -103 -10 0
v -102 -11 0
v -103 -11 0
v -103 -10 0
v -102 -10 0
v -101 -11 0
v -102 -11 0
v -102 -10 0
v -101 -10 0
v -100 -11 0
v -101 -11 0
v -101 -10 0
v -100 -10 0
v -99 -11 0
v -100 -11 0
v -100 -10 0
v -99 -10 0
v -98 -11 0
v -99 -11 0
v -99 -10 0
v -98 -10 0
v -97 -11 0
v -98 -11 0
v -98 -10 0
v -97 -10 0
v -96 -11 0
v -97 -11 0
v -97 -10 0
v -96 -10 0
v -105 -12 0
v -106 -12 0
v -106 -11 0
v -105 -11 0
v -104 -12 0
v -105 -12 0
v -105 -11 0
v -104 -11 0
v -103 -12 0
v -104 -12 0
v -104 -11 0
v -103 -11 0
v -102 -12 0
v -103 -12 0
v -103 -11 0
v -102 -11 0
v -101 -12 0
v -102 -12 0
v -102 -11 0
v -101 -11 0
v -100 -12 0
v -101 -12 0
v -101 -11 0
v -100 -11 0
v -99 -12 0
v -100 -12 0
v -100 -11 0
v -99 -11 0
v -98 -12 0
v -99 -12 0
v -99 -11 0
v -98 -11 0
v -97 -12 0
v -98 -12 0
v -98 -11 0
v -97 -11 0
v -96 -12 0
v -97 -12 0
v -97 -11 0
v -96 -11 0
v -24 -57 0
v -25 -57 0
v -25 -56 0
v -24 -56 0
v -23 -57 0
v -24 -57 0
v -24 -56 0
v -23 -56 0
v -22 -57 0
v -23 -57 0
v -23 -56 0
v -22 -56 0
v -21 -57 0
v -22 -57 0
v -22 -56 0
v -21 -56 0
v -20 -57 0
v -21 -57 0
v -21 -56 0
v -20 -56 0
v -19 -57 0
v -20 -57 0
v -20 -56 0
v -19 -56 0
v -18 -57 0
v -19 -57 0
v -19 -56 0
v -18 -56 0
v -17 -57 0
v -18 -57 0
v -18 -56 0
v -17 -56 0
v -16 -57 0
v -17 -57 0
v -17 -56 0
v -16 -56 0
v -15 -57 0
v -16 -57 0
v -16 -56 0
v -15 -56 0
v -14 -57 0
v -15 -57 0
v -15 -56 0
v -14 -56 0
v -13 -57 0
v -14 -57 0
v -14 -56 0
v -13 -56 0
v -12 -57 0
v -13 -57 0
v -13 -56 0
v -12 -56 0
v -11 -57 0
v -12 -57 0
v -12 -56 0
v -11 -56 0
v -10 -57 0
v -11 -57 0
v -11 -56 0
v -10 -56 0
v -9 -57 0
v -10 -57 0
v -10 -56 0
v -9 -56 0
v -8 -57 0
v -9 -57 0
v -9 -56 0
v -8 -56 0
v -7 -57 0
v -8 -57 0
v -8 -56 0
v -7 -56 0
v -6 -57 0
v -7 -57 0
v -7 -56 0
v -6 -56 0
v -5 -57 0
v -6 -57 0
v -6 -56 0
v -5 -56 0
v -4 -57 0
v -5 -57 0
v -5 -56 0
v -4 -56 0
v -3 -57 0
v -4 -57 0
v -4 -56 0
v -3 -56 0
v -2 -57 0
v -3 -57 0
v -3 -56 0
v -2 -56 0
v -25 -58 0
v -26 -58 0
v -26 -57 0
v -25 -57 0
v -24 -58 0
v -25 -58 0
v -25 -57 0
v -24 -57 0
v -5 -58 0
v -6 -58 0
v -6 -57 0
v -5 -57 0
v -4 -58 0
v -5 -58 0
v -5 -57 0
v -4 -57 0
v -3 -58 0
v -4 -58 0
v -4 -57 0
v -3 -57 0
v -2 -58 0
v -3 -58 0
v -3 -57 0
v -2 -57 0
v -25 -59 0
v -26 -59 0
v -26 -58 0
v -25 -58 0
v -24 -59 0
v -25 -59 0
v -25 -58 0
v -24 -58 0
v -4 -59 0
v -5 -59 0
v -5 -58 0
v -4 -58 0
v -3 -59 0
v -4 -59 0
v -4 -58 0
v -3 -58 0
v -2 -59 0
v -3 -59 0
v -3 -58 0
v -2 -58 0
v -25 -60 0
v -26 -60 0
v -26 -59 0
v -25 -59 0
v -24 -60 0
v -25 -60 0
v -25 -59 0
v -24 -59 0
v -3 -60 0
v -4 -60 0
v -4 -59 0
v -3 -59 0
v -2 -60 0
v -3 -60 0
v -3 -59 0
v -2 -59 0
v -2 -61 0
v -3 -61 0
v -3 -60 0
v -2 -60 0
v -25 -63 0
v -26 -63 0
v -26 -62 0
v -25 -62 0
v -24 -63 0
v -25 -63 0
v -25 -62 0
v -24 -62 0
v -9 -63 0
v -10 -63 0
v -10 -62 0
v -9 -62 0
v -8 -63 0
v -9 -63 0
v -9 -62 0
v -8 -62 0
v -7 -63 0
v -8 -63 0
v -8 -62 0
v -7 -62 0
v -25 -64 0
v -26 -64 0
v -26 -63 0
v -25 -63 0
v -24 -64 0
v -25 -64 0
v -25 -63 0
v -24 -63 0
v -10 -64 0
v -11 -64 0
v -11 -63 0
v -10 -63 0
v -9 -64 0
v -10 -64 0
v -10 -63 0
v -9 -63 0
v -8 -64 0
v -9 -64 0
v -9 -63 0
v -8 -63 0
v -7 -64 0
v -8 -64 0
v -8 -63 0
v -7 -63 0
v -6 -64 0
v -7 -64 0
v -7 -63 0
v -6 -63 0
v -25 -65 0
v -26 -65 0
v -26 -64 0
v -25 -64 0
v -24 -65 0
v -25 -65 0
v -25 -64 0
v -24 -64 0
v -10 -65 0
v -11 -65 0
v -11 -64 0
v -10 -64 0
v -9 -65 0
v -10 -65 0
v -10 -64 0
v -9 -64 0
v -8 -65 0
v -9 -65 0
v -9 -64 0
v -8 -64 0
v -7 -65 0
v -8 -65 0
v -8 -64 0
v -7 -64 0
v -6 -65 0
v -7 -65 0
v -7 -64 0
v -6 -64 0
v -24 -66 0
v -25 -66 0
v -25 -65 0
v -24 -65 0
v -24 -67 0
v -25 -67 0
v -25 -66 0
v -24 -66 0
v -18 -67 0
v -19 -67 0
v -19 -66 0
v -18 -66 0
v -17 -67 0
v -18 -67 0
v -18 -66 0
v -17 -66 0
v -4 -67 0
v -5 -67 0
v -5 -66 0
v -4 -66 0
v -3 -67 0
v -4 -67 0
v -4 -66 0
v -3 -66 0
v -2 -67 0
v -3 -67 0
v -3 -66 0
v -2 -66 0
v -24 -68 0
v -25 -68 0
v -25 -67 0
v -24 -67 0
v -18 -68 0
v -19 -68 0
v -19 -67 0
v -18 -67 0
v -17 -68 0
v -18 -68 0
v -18 -67 0
v -17 -67 0
v -4 -68 0
v -5 -68 0
v -5 -67 0
v -4 -67 0
v -3 -68 0
v -4 -68 0
v -4 -67 0
v -3 -67 0
v -2 -68 0
v -3 -68 0
v -3 -67 0
v -2 -67 0
v -24 -69 0
v -25 -69 0
v -25 -68 0
v -24 -68 0
v -13 -69 0
v -14 -69 0
v -14 -68 0
v -13 -68 0
v -10 -69 0
v -11 -69 0
v -11 -68 0
v -10 -68 0
v -9 -69 0
v -10 -69 0
v -10 -68 0
v -9 -68 0
v -8 -69 0
v -9 -69 0
v -9 -68 0
v -8 -68 0
v -24 -70 0
v -25 -70 0
v -25 -69 0
v -24 -69 0
v -13 -70 0
v -14 -70 0
v -14 -69 0
v -13 -69 0
v -11 -70 0
v -12 -70 0
v -12 -69 0
v -11 -69 0
v -10 -70 0
v -11 -70 0
v -11 -69 0
v -10 -69 0
v -9 -70 0
v -10 -70 0
v -10 -69 0
v -9 -69 0
v -8 -70 0
v -9 -70 0
v -9 -69 0
v -8 -69 0
v -7 -70 0
v -8 -70 0
v -8 -69 0
v -7 -69 0
v -24 -71 0
v -25 -71 0
v -25 -70 0
v -24 -70 0
v -21 -71 0
v -22 -71 0
v -22 -70 0
v -21 -70 0
v -11 -71 0
v -12 -71 0
v -12 -70 0
v -11 -70 0
v -10 -71 0
v -11 -71 0
v -11 -70 0
v -10 -70 0
v -9 -71 0
v -10 -71 0
v -10 -70 0
v -9 -70 0
v -8 -71 0
v -9 -71 0
v -9 -70 0
v -8 -70 0
v -7 -71 0
v -8 -71 0
v -8 -70 0
v -7 -70 0
v -2 -71 0
v -3 -71 0
v -3 -70 0
v -2 -70 0
v -24 -72 0
v -25 -72 0
v -25 -71 0
v -24 -71 0
v -3 -72 0
v -4 -72 0
v -4 -71 0
v -3 -71 0
v -2 -72 0
v -3 -72 0
v -3 -71 0
v -2 -71 0
v -24 -73 0
v -25 -73 0
v -25 -72 0
v -24 -72 0
v -4 -73 0
v -5 -73 0
v -5 -72 0
v -4 -72 0
v -3 -73 0
v -4 -73 0
v -4 -72 0
v -3 -72 0
v -2 -73 0
v -3 -73 0
v -3 -72 0
v -2 -72 0

# Texture cooridinates (Count = 96)
vt 0.625 0.5625
vt 0.6875 0.5625
vt 0.6875 0.625
vt 0.625 0.625
vt 0.5625 0.5625
vt 0.5625 0.625
vt 0.625 0.5
vt 0.6875 0.5
vt 0.5625 0.5
vt 0.75 0.375
vt 0.8125 0.375
vt 0.8125 0.4375
vt 0.75 0.4375
vt 0.6875 0.375
vt 0.6875 0.4375
vt 0.625 0.4375
vt 0.5625 0.4375
vt 0.75 0.3125
vt 0.8125 0.3125
vt 0.6875 0.3125
vt 0.625 0.25
vt 0.6875 0.25
vt 0.625 0.3125
vt 0.5625 0.25
vt 0.5625 0.3125
vt 0.75 0.25
vt 0.8125 0.25
vt 0.75 0.1875
vt 0.8125 0.1875
vt 0.6875 0.1875
vt 0.625 0.1875
vt 0.5625 0.1875
vt 0.75 0.125
vt 0.8125 0.125
vt 0.6875 0.125
vt 0.625 0.125
vt 0.5625 0.125
vt 0.375 0
vt 0.4375 0
vt 0.4375 0.0625
vt 0.375 0.0625
vt 0.5 0.1875
vt 0.5 0.25
vt 0.1875 0.0625
vt 0.25 0.0625
vt 0.25 0.125
vt 0.1875 0.125
vt 0.5 0.125
vt 0.5 0.0625
vt 0.5625 0.0625
vt 0.8125 0.5625
vt 0.875 0.5625
vt 0.875 0.625
vt 0.8125 0.625
vt 0.75 0.5625
vt 0.75 0.625
vt 0.5625 0.6875
vt 0.625 0.6875
vt 0.625 0.75
vt 0.5625 0.75
vt 0.8125 0.5
vt 0.875 0.5
vt 0.75 0.5
vt 0.875 0.4375
vt 0.9375 0.6875
vt 1 0.6875
vt 1 0.75
vt 0.9375 0.75
vt 0.875 0.6875
vt 0.875 0.75
vt 0.625 0.8125
vt 0.6875 0.8125
vt 0.6875 0.875
vt 0.625 0.875
vt 0.5625 0.8125
vt 0.5625 0.875
vt 0.5 0.8125
vt 0.5 0.875
vt 0.9375 0.625
vt 1 0.625
vt 0.6875 0.75
vt 0.5 0.75
vt 0.4375 0.4375
vt 0.5 0.4375
vt 0.5 0.5
vt 0.4375 0.5
vt 0.4375 0.375
vt 0.5 0.375
vt 0.75 0.6875
vt 0.8125 0.6875
vt 0.8125 0.75
vt 0.75 0.75
vt 0.0625 0.0625
vt 0.125 0.0625
vt 0.125 0.125
vt 0.0625 0.125

# Normal
vn 0 0 -1

# Mesh description
g Ucrania_mesh_0003

# Faces
f 1/1/1 2/2/1 3/3/1 4/4/1
f 5/5/1 6/1/1 7/4/1 8/6/1
f 9/1/1 10/2/1 11/3/1 12/4/1
f 13/5/1 14/1/1 15/4/1 16/6/1
f 17/7/1 18/8/1 19/2/1 20/1/1
f 21/9/1 22/7/1 23/1/1 24/5/1
f 25/7/1 26/8/1 27/2/1 28/1/1
f 29/9/1 30/7/1 31/1/1 32/5/1
f 33/10/1 34/11/1 35/12/1 36/13/1
f 37/14/1 38/10/1 39/13/1 40/15/1
f 41/16/1 42/15/1 43/8/1 44/7/1
f 45/17/1 46/16/1 47/7/1 48/9/1
f 49/10/1 50/11/1 51/12/1 52/13/1
f 53/14/1 54/10/1 55/13/1 56/15/1
f 57/16/1 58/15/1 59/8/1 60/7/1
f 61/17/1 62/16/1 63/7/1 64/9/1
f 65/10/1 66/11/1 67/12/1 68/13/1
f 69/14/1 70/10/1 71/13/1 72/15/1
f 73/18/1 74/19/1 75/11/1 76/10/1
f 77/20/1 78/18/1 79/10/1 80/14/1
f 81/21/1 82/22/1 83/20/1 84/23/1
f 85/24/1 86/21/1 87/23/1 88/25/1
f 89/18/1 90/19/1 91/11/1 92/10/1
f 93/20/1 94/18/1 95/10/1 96/14/1
f 97/21/1 98/22/1 99/20/1 100/23/1
f 101/24/1 102/21/1 103/23/1 104/25/1
f 105/18/1 106/19/1 107/11/1 108/10/1
f 109/20/1 110/18/1 111/10/1 112/14/1
f 113/26/1 114/27/1 115/19/1 116/18/1
f 117/22/1 118/26/1 119/18/1 120/20/1
f 121/21/1 122/22/1 123/20/1 124/23/1
f 125/24/1 126/21/1 127/23/1 128/25/1
f 129/26/1 130/27/1 131/19/1 132/18/1
f 133/22/1 134/26/1 135/18/1 136/20/1
f 137/21/1 138/22/1 139/20/1 140/23/1
f 141/24/1 142/21/1 143/23/1 144/25/1
f 145/26/1 146/27/1 147/19/1 148/18/1
f 149/22/1 150/26/1 151/18/1 152/20/1
f 153/26/1 154/27/1 155/19/1 156/18/1
f 157/22/1 158/26/1 159/18/1 160/20/1
f 161/21/1 162/22/1 163/20/1 164/23/1
f 165/24/1 166/21/1 167/23/1 168/25/1
f 169/26/1 170/27/1 171/19/1 172/18/1
f 173/22/1 174/26/1 175/18/1 176/20/1
f 177/21/1 178/22/1 179/20/1 180/23/1
f 181/24/1 182/21/1 183/23/1 184/25/1
f 185/26/1 186/27/1 187/19/1 188/18/1
f 189/22/1 190/26/1 191/18/1 192/20/1
f 193/28/1 194/29/1 195/27/1 196/26/1
f 197/30/1 198/28/1 199/26/1 200/22/1
f 201/31/1 202/30/1 203/22/1 204/21/1
f 205/32/1 206/31/1 207/21/1 208/24/1
f 209/28/1 210/29/1 211/27/1 212/26/1
f 213/30/1 214/28/1 215/26/1 216/22/1
f 217/31/1 218/30/1 219/22/1 220/21/1
f 221/32/1 222/31/1 223/21/1 224/24/1
f 225/28/1 226/29/1 227/27/1 228/26/1
f 229/30/1 230/28/1 231/26/1 232/22/1
f 233/33/1 234/34/1 235/29/1 236/28/1
f 237/35/1 238/33/1 239/28/1 240/30/1
f 241/36/1 242/35/1 243/30/1 244/31/1
f 245/37/1 246/36/1 247/31/1 248/32/1
f 249/33/1 250/34/1 251/29/1 252/28/1
f 253/35/1 254/33/1 255/28/1 256/30/1
f 257/36/1 258/35/1 259/30/1 260/31/1
f 261/37/1 262/36/1 263/31/1 264/32/1
f 265/33/1 266/34/1 267/29/1 268/28/1
f 269/35/1 270/33/1 271/28/1 272/30/1
f 273/38/1 274/39/1 275/40/1 276/41/1
f 277/38/1 278/39/1 279/40/1 280/41/1
f 281/38/1 282/39/1 283/40/1 284/41/1
f 285/38/1 286/39/1 287/40/1 288/41/1
f 289/38/1 290/39/1 291/40/1 292/41/1
f 293/38/1 294/39/1 295/40/1 296/41/1
f 297/38/1 298/39/1 299/40/1 300/41/1
f 301/38/1 302/39/1 303/40/1 304/41/1
f 305/38/1 306/39/1 307/40/1 308/41/1
f 309/38/1 310/39/1 311/40/1 312/41/1
f 313/38/1 314/39/1 315/40/1 316/41/1
f 317/38/1 318/39/1 319/40/1 320/41/1
f 321/38/1 322/39/1 323/40/1 324/41/1
f 325/38/1 326/39/1 327/40/1 328/41/1
f 329/38/1 330/39/1 331/40/1 332/41/1
f 333/38/1 334/39/1 335/40/1 336/41/1
f 337/38/1 338/39/1 339/40/1 340/41/1
f 341/38/1 342/39/1 343/40/1 344/41/1
f 345/38/1 346/39/1 347/40/1 348/41/1
f 349/38/1 350/39/1 351/40/1 352/41/1
f 353/38/1 354/39/1 355/40/1 356/41/1
f 357/38/1 358/39/1 359/40/1 360/41/1
f 361/38/1 362/39/1 363/40/1 364/41/1
f 365/42/1 366/32/1 367/24/1 368/43/1
f 369/38/1 370/39/1 371/40/1 372/41/1
f 373/44/1 374/45/1 375/46/1 376/47/1
f 377/44/1 378/45/1 379/46/1 380/47/1
f 381/44/1 382/45/1 383/46/1 384/47/1
f 385/44/1 386/45/1 387/46/1 388/47/1
f 389/48/1 390/37/1 391/32/1 392/42/1
f 393/38/1 394/39/1 395/40/1 396/41/1
f 397/44/1 398/45/1 399/46/1 400/47/1
f 401/44/1 402/45/1 403/46/1 404/47/1
f 405/44/1 406/45/1 407/46/1 408/47/1
f 409/49/1 410/50/1 411/37/1 412/48/1
f 413/38/1 414/39/1 415/40/1 416/41/1
f 417/44/1 418/45/1 419/46/1 420/47/1
f 421/44/1 422/45/1 423/46/1 424/47/1
f 425/44/1 426/45/1 427/46/1 428/47/1
f 429/42/1 430/32/1 431/24/1 432/43/1
f 433/38/1 434/39/1 435/40/1 436/41/1
f 437/51/1 438/52/1 439/53/1 440/54/1
f 441/55/1 442/51/1 443/54/1 444/56/1
f 445/2/1 446/55/1 447/56/1 448/3/1
f 449/48/1 450/37/1 451/32/1 452/42/1
f 453/38/1 454/39/1 455/40/1 456/41/1
f 457/57/1 458/58/1 459/59/1 460/60/1
f 461/61/1 462/62/1 463/52/1 464/51/1
f 465/63/1 466/61/1 467/51/1 468/55/1
f 469/8/1 470/63/1 471/55/1 472/2/1
f 473/57/1 474/58/1 475/59/1 476/60/1
f 477/49/1 478/50/1 479/37/1 480/48/1
f 481/38/1 482/39/1 483/40/1 484/41/1
f 485/6/1 486/4/1 487/58/1 488/57/1
f 489/12/1 490/64/1 491/62/1 492/61/1
f 493/13/1 494/12/1 495/61/1 496/63/1
f 497/15/1 498/13/1 499/63/1 500/8/1
f 501/6/1 502/4/1 503/58/1 504/57/1
f 505/38/1 506/39/1 507/40/1 508/41/1
f 509/38/1 510/39/1 511/40/1 512/41/1
f 513/65/1 514/66/1 515/67/1 516/68/1
f 517/69/1 518/65/1 519/68/1 520/70/1
f 521/71/1 522/72/1 523/73/1 524/74/1
f 525/75/1 526/71/1 527/74/1 528/76/1
f 529/77/1 530/75/1 531/76/1 532/78/1
f 533/38/1 534/39/1 535/40/1 536/41/1
f 537/79/1 538/80/1 539/66/1 540/65/1
f 541/53/1 542/79/1 543/65/1 544/69/1
f 545/59/1 546/81/1 547/72/1 548/71/1
f 549/60/1 550/59/1 551/71/1 552/75/1
f 553/82/1 554/60/1 555/75/1 556/77/1
f 557/38/1 558/39/1 559/40/1 560/41/1
f 561/83/1 562/84/1 563/85/1 564/86/1
f 565/51/1 566/52/1 567/53/1 568/54/1
f 569/55/1 570/51/1 571/54/1 572/56/1
f 573/2/1 574/55/1 575/56/1 576/3/1
f 577/38/1 578/39/1 579/40/1 580/41/1
f 581/87/1 582/88/1 583/84/1 584/83/1
f 585/89/1 586/90/1 587/91/1 588/92/1
f 589/61/1 590/62/1 591/52/1 592/51/1
f 593/63/1 594/61/1 595/51/1 596/55/1
f 597/8/1 598/63/1 599/55/1 600/2/1
f 601/89/1 602/90/1 603/91/1 604/92/1
f 605/38/1 606/39/1 607/40/1 608/41/1
f 609/93/1 610/94/1 611/95/1 612/96/1
f 613/56/1 614/54/1 615/90/1 616/89/1
f 617/12/1 618/64/1 619/62/1 620/61/1
f 621/13/1 622/12/1 623/61/1 624/63/1
f 625/15/1 626/13/1 627/63/1 628/8/1
f 629/56/1 630/54/1 631/90/1 632/89/1
f 633/44/1 634/45/1 635/46/1 636/47/1
f 637/38/1 638/39/1 639/40/1 640/41/1
f 641/44/1 642/45/1 643/46/1 644/47/1
f 645/44/1 646/45/1 647/46/1 648/47/1
f 649/38/1 650/39/1 651/40/1 652/41/1
f 653/44/1 654/45/1 655/46/1 656/47/1
f 657/44/1 658/45/1 659/46/1 660/47/1
f 661/44/1 662/45/1 663/46/1 664/47/1

